<svg id="visual" viewBox="0 0 900 600" width="900" height="600" xmlns="http://www.w3.org/2000/svg" xmlns:xlink="http://www.w3.org/1999/xlink" version="1.1"><rect x="0" y="0" width="900" height="600" fill="#fff"></rect><defs><linearGradient id="grad1_0" x1="33.3%" y1="0%" x2="100%" y2="100%"><stop offset="20%" stop-color="#813588" stop-opacity="1"></stop><stop offset="80%" stop-color="#813588" stop-opacity="1"></stop></linearGradient></defs><defs><linearGradient id="grad1_1" x1="33.3%" y1="0%" x2="100%" y2="100%"><stop offset="20%" stop-color="#813588" stop-opacity="1"></stop><stop offset="80%" stop-color="#9b5e9f" stop-opacity="1"></stop></linearGradient></defs><defs><linearGradient id="grad1_2" x1="33.3%" y1="0%" x2="100%" y2="100%"><stop offset="20%" stop-color="#b585b7" stop-opacity="1"></stop><stop offset="80%" stop-color="#9b5e9f" stop-opacity="1"></stop></linearGradient></defs><defs><linearGradient id="grad1_3" x1="33.3%" y1="0%" x2="100%" y2="100%"><stop offset="20%" stop-color="#b585b7" stop-opacity="1"></stop><stop offset="80%" stop-color="#ceadce" stop-opacity="1"></stop></linearGradient></defs><defs><linearGradient id="grad1_4" x1="33.3%" y1="0%" x2="100%" y2="100%"><stop offset="20%" stop-color="#e7d5e7" stop-opacity="1"></stop><stop offset="80%" stop-color="#ceadce" stop-opacity="1"></stop></linearGradient></defs><defs><linearGradient id="grad1_5" x1="33.3%" y1="0%" x2="100%" y2="100%"><stop offset="20%" stop-color="#e7d5e7" stop-opacity="1"></stop><stop offset="80%" stop-color="#ffffff" stop-opacity="1"></stop></linearGradient></defs><defs><linearGradient id="grad2_0" x1="0%" y1="0%" x2="66.7%" y2="100%"><stop offset="20%" stop-color="#813588" stop-opacity="1"></stop><stop offset="80%" stop-color="#813588" stop-opacity="1"></stop></linearGradient></defs><defs><linearGradient id="grad2_1" x1="0%" y1="0%" x2="66.7%" y2="100%"><stop offset="20%" stop-color="#9b5e9f" stop-opacity="1"></stop><stop offset="80%" stop-color="#813588" stop-opacity="1"></stop></linearGradient></defs><defs><linearGradient id="grad2_2" x1="0%" y1="0%" x2="66.7%" y2="100%"><stop offset="20%" stop-color="#9b5e9f" stop-opacity="1"></stop><stop offset="80%" stop-color="#b585b7" stop-opacity="1"></stop></linearGradient></defs><defs><linearGradient id="grad2_3" x1="0%" y1="0%" x2="66.7%" y2="100%"><stop offset="20%" stop-color="#ceadce" stop-opacity="1"></stop><stop offset="80%" stop-color="#b585b7" stop-opacity="1"></stop></linearGradient></defs><defs><linearGradient id="grad2_4" x1="0%" y1="0%" x2="66.7%" y2="100%"><stop offset="20%" stop-color="#ceadce" stop-opacity="1"></stop><stop offset="80%" stop-color="#e7d5e7" stop-opacity="1"></stop></linearGradient></defs><defs><linearGradient id="grad2_5" x1="0%" y1="0%" x2="66.7%" y2="100%"><stop offset="20%" stop-color="#ffffff" stop-opacity="1"></stop><stop offset="80%" stop-color="#e7d5e7" stop-opacity="1"></stop></linearGradient></defs><g transform="translate(900, 0)"><path d="M0 313C-41.5 306.2 -82.9 299.4 -116.7 281.8C-150.5 264.1 -176.6 235.7 -209.3 209.3C-242 182.9 -281.3 158.7 -299.8 124.2C-318.3 89.7 -316.2 44.8 -314 0L0 0Z" fill="#f3eaf3"></path><path d="M0 260.8C-34.6 255.2 -69.1 249.5 -97.3 234.8C-125.4 220.1 -147.2 196.4 -174.4 174.4C-201.7 152.5 -234.4 132.3 -249.8 103.5C-265.3 74.7 -263.5 37.4 -261.7 0L0 0Z" fill="#dac1da"></path><path d="M0 208.7C-27.6 204.1 -55.3 199.6 -77.8 187.9C-100.3 176.1 -117.7 157.1 -139.5 139.5C-161.3 122 -187.5 105.8 -199.9 82.8C-212.2 59.8 -210.8 29.9 -209.3 0L0 0Z" fill="#c199c3"></path><path d="M0 156.5C-20.7 153.1 -41.5 149.7 -58.4 140.9C-75.3 132.1 -88.3 117.8 -104.7 104.7C-121 91.5 -140.6 79.4 -149.9 62.1C-159.2 44.8 -158.1 22.4 -157 0L0 0Z" fill="#a871ab"></path><path d="M0 104.3C-13.8 102.1 -27.6 99.8 -38.9 93.9C-50.2 88 -58.9 78.6 -69.8 69.8C-80.7 61 -93.8 52.9 -99.9 41.4C-106.1 29.9 -105.4 14.9 -104.7 0L0 0Z" fill="#8e4a94"></path><path d="M0 52.2C-6.9 51 -13.8 49.9 -19.5 47C-25.1 44 -29.4 39.3 -34.9 34.9C-40.3 30.5 -46.9 26.5 -50 20.7C-53.1 14.9 -52.7 7.5 -52.3 0L0 0Z" fill="#813588"></path></g><g transform="translate(0, 600)"><path d="M0 -311C41 -304.7 82 -298.5 117.1 -282.7C152.2 -266.9 181.5 -241.6 215 -215C248.5 -188.3 286.2 -160.2 299.8 -124.2C313.4 -88.1 302.7 -44.1 292 0L0 0Z" fill="#f3eaf3"></path><path d="M0 -259.2C34.2 -254 68.3 -248.7 97.6 -235.6C126.8 -222.4 151.2 -201.4 179.1 -179.1C207.1 -156.9 238.5 -133.5 249.8 -103.5C261.1 -73.4 252.2 -36.7 243.3 0L0 0Z" fill="#dac1da"></path><path d="M0 -207.3C27.3 -203.2 54.7 -199 78.1 -188.5C101.5 -178 121 -161.1 143.3 -143.3C165.6 -125.5 190.8 -106.8 199.9 -82.8C208.9 -58.7 201.8 -29.4 194.7 0L0 0Z" fill="#c199c3"></path><path d="M0 -155.5C20.5 -152.4 41 -149.2 58.6 -141.4C76.1 -133.5 90.7 -120.8 107.5 -107.5C124.2 -94.1 143.1 -80.1 149.9 -62.1C156.7 -44.1 151.3 -22 146 0L0 0Z" fill="#a871ab"></path><path d="M0 -103.7C13.7 -101.6 27.3 -99.5 39 -94.2C50.7 -89 60.5 -80.5 71.7 -71.7C82.8 -62.8 95.4 -53.4 99.9 -41.4C104.5 -29.4 100.9 -14.7 97.3 0L0 0Z" fill="#8e4a94"></path><path d="M0 -51.8C6.8 -50.8 13.7 -49.7 19.5 -47.1C25.4 -44.5 30.2 -40.3 35.8 -35.8C41.4 -31.4 47.7 -26.7 50 -20.7C52.2 -14.7 50.4 -7.3 48.7 0L0 0Z" fill="#813588"></path></g></svg>